<?xml version="1.0" encoding="UTF-8"?>
<svg xmlns="http://www.w3.org/2000/svg" version="1.1" width="300" height="300" viewBox="0 0 300 300"><rect x="0" y="0" width="300" height="300" fill="#ffffff"/><g transform="scale(12)"><g transform="translate(0,0)"><path fill-rule="evenodd" d="M12 0L12 1L14 1L14 0ZM16 0L16 1L15 1L15 4L16 4L16 5L14 5L14 3L13 3L13 2L11 2L11 1L10 1L10 2L11 2L11 3L8 3L8 4L9 4L9 5L8 5L8 7L9 7L9 8L6 8L6 9L5 9L5 8L0 8L0 10L2 10L2 11L0 11L0 12L1 12L1 13L0 13L0 17L1 17L1 14L2 14L2 15L3 15L3 16L2 16L2 17L8 17L8 19L9 19L9 20L8 20L8 25L9 25L9 22L12 22L12 23L13 23L13 22L14 22L14 21L15 21L15 23L14 23L14 24L13 24L13 25L15 25L15 23L16 23L16 24L17 24L17 25L25 25L25 21L24 21L24 20L25 20L25 18L23 18L23 16L22 16L22 13L23 13L23 15L24 15L24 16L25 16L25 14L24 14L24 13L25 13L25 10L24 10L24 8L23 8L23 11L24 11L24 12L22 12L22 13L21 13L21 12L19 12L19 10L20 10L20 11L22 11L22 10L20 10L20 8L19 8L19 10L18 10L18 11L17 11L17 10L15 10L15 6L16 6L16 8L17 8L17 9L18 9L18 8L17 8L17 6L16 6L16 5L17 5L17 3L16 3L16 1L17 1L17 0ZM8 1L8 2L9 2L9 1ZM11 3L11 4L10 4L10 6L9 6L9 7L10 7L10 6L11 6L11 7L12 7L12 8L14 8L14 6L13 6L13 5L11 5L11 4L13 4L13 3ZM12 6L12 7L13 7L13 6ZM10 8L10 9L6 9L6 10L4 10L4 9L2 9L2 10L4 10L4 11L3 11L3 12L4 12L4 13L2 13L2 14L4 14L4 13L6 13L6 14L7 14L7 13L9 13L9 12L11 12L11 13L10 13L10 14L9 14L9 15L8 15L8 16L9 16L9 17L10 17L10 18L11 18L11 19L12 19L12 20L14 20L14 19L15 19L15 20L16 20L16 18L14 18L14 17L13 17L13 16L14 16L14 15L15 15L15 16L16 16L16 15L15 15L15 14L16 14L16 13L17 13L17 15L18 15L18 16L19 16L19 15L20 15L20 16L21 16L21 17L22 17L22 16L21 16L21 13L20 13L20 14L19 14L19 13L17 13L17 12L16 12L16 11L13 11L13 10L14 10L14 9L13 9L13 10L11 10L11 11L10 11L10 9L11 9L11 8ZM21 8L21 9L22 9L22 8ZM6 10L6 11L7 11L7 12L6 12L6 13L7 13L7 12L9 12L9 11L8 11L8 10ZM4 11L4 12L5 12L5 11ZM11 11L11 12L13 12L13 14L12 14L12 13L11 13L11 14L12 14L12 15L9 15L9 16L10 16L10 17L11 17L11 18L12 18L12 17L11 17L11 16L13 16L13 14L14 14L14 13L15 13L15 12L13 12L13 11ZM18 14L18 15L19 15L19 14ZM4 15L4 16L5 16L5 15ZM6 15L6 16L7 16L7 15ZM17 17L17 20L20 20L20 17ZM13 18L13 19L14 19L14 18ZM18 18L18 19L19 19L19 18ZM22 19L22 20L23 20L23 19ZM10 20L10 21L11 21L11 20ZM12 21L12 22L13 22L13 21ZM21 21L21 22L20 22L20 23L22 23L22 24L24 24L24 22L23 22L23 23L22 23L22 21ZM16 22L16 23L19 23L19 22ZM0 0L0 7L7 7L7 0ZM1 1L1 6L6 6L6 1ZM2 2L2 5L5 5L5 2ZM18 0L18 7L25 7L25 0ZM19 1L19 6L24 6L24 1ZM20 2L20 5L23 5L23 2ZM0 18L0 25L7 25L7 18ZM1 19L1 24L6 24L6 19ZM2 20L2 23L5 23L5 20Z" fill="#000000"/></g></g></svg>
