<?xml version="1.0" encoding="UTF-8"?>
<svg xmlns="http://www.w3.org/2000/svg" version="1.1" width="300" height="300" viewBox="0 0 300 300"><rect x="0" y="0" width="300" height="300" fill="#ffffff"/><g transform="scale(12)"><g transform="translate(0,0)"><path fill-rule="evenodd" d="M9 0L9 1L8 1L8 3L9 3L9 4L8 4L8 8L6 8L6 9L7 9L7 10L4 10L4 8L3 8L3 10L2 10L2 8L0 8L0 10L2 10L2 11L1 11L1 12L0 12L0 13L1 13L1 12L3 12L3 14L6 14L6 15L7 15L7 16L5 16L5 15L1 15L1 14L0 14L0 15L1 15L1 16L0 16L0 17L3 17L3 16L4 16L4 17L8 17L8 19L9 19L9 21L8 21L8 22L9 22L9 23L8 23L8 25L9 25L9 23L10 23L10 22L11 22L11 20L10 20L10 19L11 19L11 18L13 18L13 19L12 19L12 24L13 24L13 25L14 25L14 23L15 23L15 22L17 22L17 21L20 21L20 23L21 23L21 24L22 24L22 23L23 23L23 21L22 21L22 22L21 22L21 20L23 20L23 19L25 19L25 17L24 17L24 18L23 18L23 16L24 16L24 15L25 15L25 12L23 12L23 13L22 13L22 12L21 12L21 11L20 11L20 10L19 10L19 9L21 9L21 8L18 8L18 9L17 9L17 8L15 8L15 6L16 6L16 7L17 7L17 6L16 6L16 5L17 5L17 1L16 1L16 0L12 0L12 1L11 1L11 0ZM9 1L9 2L11 2L11 1ZM13 1L13 2L12 2L12 3L13 3L13 8L14 8L14 6L15 6L15 5L14 5L14 4L15 4L15 3L16 3L16 2L15 2L15 1ZM9 4L9 5L10 5L10 6L9 6L9 7L10 7L10 8L8 8L8 10L7 10L7 11L5 11L5 13L6 13L6 14L7 14L7 15L8 15L8 17L14 17L14 18L15 18L15 17L16 17L16 15L17 15L17 16L18 16L18 15L17 15L17 13L15 13L15 12L16 12L16 10L17 10L17 11L18 11L18 12L19 12L19 11L18 11L18 10L17 10L17 9L15 9L15 10L13 10L13 9L12 9L12 5L11 5L11 4ZM10 6L10 7L11 7L11 6ZM10 8L10 10L9 10L9 11L11 11L11 12L12 12L12 11L11 11L11 8ZM22 8L22 9L24 9L24 10L23 10L23 11L25 11L25 9L24 9L24 8ZM3 11L3 12L4 12L4 11ZM13 11L13 13L12 13L12 14L11 14L11 13L10 13L10 14L8 14L8 13L7 13L7 12L6 12L6 13L7 13L7 14L8 14L8 15L9 15L9 16L10 16L10 15L13 15L13 16L15 16L15 15L13 15L13 14L14 14L14 12L15 12L15 11ZM20 12L20 14L19 14L19 16L21 16L21 15L22 15L22 16L23 16L23 15L24 15L24 13L23 13L23 15L22 15L22 14L21 14L21 12ZM17 17L17 20L20 20L20 17ZM18 18L18 19L19 19L19 18ZM21 18L21 19L23 19L23 18ZM13 19L13 20L14 20L14 19ZM15 19L15 21L13 21L13 22L15 22L15 21L16 21L16 19ZM24 22L24 23L25 23L25 22ZM16 23L16 24L15 24L15 25L20 25L20 24L18 24L18 23ZM23 24L23 25L25 25L25 24ZM0 0L0 7L7 7L7 0ZM1 1L1 6L6 6L6 1ZM2 2L2 5L5 5L5 2ZM18 0L18 7L25 7L25 0ZM19 1L19 6L24 6L24 1ZM20 2L20 5L23 5L23 2ZM0 18L0 25L7 25L7 18ZM1 19L1 24L6 24L6 19ZM2 20L2 23L5 23L5 20Z" fill="#000000"/></g></g></svg>
